<?xml version="1.0" encoding="UTF-8" standalone="no"?>
<!-- Created with Inkscape (http://www.inkscape.org/) -->

<svg
   width="135.40886mm"
   height="132.72438mm"
   viewBox="0 0 135.40886 132.72438"
   version="1.1"
   id="svg367"
   xml:space="preserve"
   inkscape:version="1.2.2 (732a01da63, 2022-12-09)"
   sodipodi:docname="calendar.svg"
   xmlns:inkscape="http://www.inkscape.org/namespaces/inkscape"
   xmlns:sodipodi="http://sodipodi.sourceforge.net/DTD/sodipodi-0.dtd"
   xmlns="http://www.w3.org/2000/svg"
   xmlns:svg="http://www.w3.org/2000/svg"><sodipodi:namedview
     id="namedview369"
     pagecolor="#ffffff"
     bordercolor="#666666"
     borderopacity="1.0"
     inkscape:showpageshadow="2"
     inkscape:pageopacity="0.0"
     inkscape:pagecheckerboard="0"
     inkscape:deskcolor="#d1d1d1"
     inkscape:document-units="mm"
     showgrid="false"
     inkscape:zoom="0.46769781"
     inkscape:cx="523.84252"
     inkscape:cy="179.60315"
     inkscape:window-width="1366"
     inkscape:window-height="705"
     inkscape:window-x="-8"
     inkscape:window-y="-8"
     inkscape:window-maximized="1"
     inkscape:current-layer="layer1" /><defs
     id="defs364" /><g
     inkscape:label="Capa 1"
     inkscape:groupmode="layer"
     id="layer1"
     transform="translate(78.489604,-101.44263)"><path
       style="fill:#000000;stroke-width:0.264583"
       d="m -72.565221,233.91925 c -2.22658,-0.80273 -4.06035,-2.48545 -5.1229,-4.7009 l -0.69793,-1.45521 -0.0811,-53.57812 c -0.0604,-39.91914 -0.003,-53.9491 0.22597,-55.03333 0.48967,-2.3207 1.79669,-4.20307 3.81386,-5.4927 1.9407,-1.24075 3.10539,-1.37994 11.57526,-1.38332 l 7.86108,-0.003 0.0764,8.6651 0.0764,8.6651 0.69039,1.45521 c 1.16589,2.45746 3.47922,4.41852 6.14664,5.21066 2.1599,0.64142 6.51027,0.38664 8.40826,-0.49244 1.80525,-0.83612 3.47168,-2.29708 4.37149,-3.83249 1.27438,-2.17457 1.41107,-3.31483 1.41445,-11.79979 l 0.003,-7.87135 h 23.53112 23.53111 l 0.0829,8.40052 0.0829,8.40052 0.81876,1.71979 c 2.09618,4.40296 6.3332,6.35536 12.12006,5.58489 3.94294,-0.52496 6.63972,-2.36821 7.73228,-5.28501 0.39291,-1.04895 0.4745,-2.49591 0.56518,-10.02332 l 0.10599,-8.79739 7.18824,0.003 c 7.75194,0.003 8.98963,0.16042 10.90241,1.38332 2.01716,1.28963 3.32419,3.172 3.81386,5.4927 0.22877,1.08423 0.28638,15.11419 0.22596,55.03333 l -0.0811,53.57812 -0.68642,1.45521 c -0.82971,1.759 -2.37246,3.34909 -4.11072,4.23684 l -1.28828,0.65795 -61.25103,0.0461 c -43.35616,0.0327 -61.48294,-0.0375 -62.04479,-0.24003 z m 120.78229,-47.69569 v -39.5552 h -59.00208 -59.00208 v 39.5552 39.55521 h 59.00208 59.00208 z m -105.89947,30.80276 c -0.42352,-0.24667 -0.46302,-0.90127 -0.46302,-7.67141 v -7.40174 l 0.67868,-0.25803 c 0.38376,-0.14591 3.97981,-0.25804 8.2755,-0.25804 6.4475,0 7.68579,0.0623 8.18486,0.41188 0.58285,0.40825 0.58804,0.47455 0.58804,7.52173 0,6.11072 -0.0584,7.16827 -0.41578,7.52562 -0.35998,0.35998 -1.48726,0.41469 -8.40052,0.40773 -4.92947,-0.005 -8.16191,-0.11124 -8.44776,-0.27774 z m 25.39999,0 c -0.42351,-0.24667 -0.46302,-0.90127 -0.46302,-7.67141 v -7.40174 l 0.67869,-0.25803 c 0.38376,-0.14591 3.97981,-0.25804 8.2755,-0.25804 6.4475,0 7.68578,0.0623 8.18486,0.41188 0.58285,0.40825 0.58804,0.47455 0.58804,7.52173 0,6.11072 -0.0584,7.16827 -0.41578,7.52562 -0.35998,0.35998 -1.48726,0.41469 -8.40052,0.40773 -4.92948,-0.005 -8.16191,-0.11124 -8.44777,-0.27774 z m 25.4000104,0 c -0.42351,-0.24667 -0.46302,-0.90127 -0.46302,-7.67141 v -7.40174 l 0.67868,-0.25803 c 0.38377,-0.14591 3.97981,-0.25804 8.2755,-0.25804 6.4475,0 7.68579,0.0623 8.18486,0.41188 0.5828496,0.40825 0.5880396,0.47455 0.5880396,7.52173 0,6.11072 -0.0584,7.16827 -0.4157796,7.52562 -0.35998,0.35998 -1.48726,0.41469 -8.40052,0.40773 -4.92948,-0.005 -8.16191,-0.11124 -8.44776,-0.27774 z m 25.3999896,0 c -0.42351,-0.24667 -0.46302,-0.90127 -0.46302,-7.67141 v -7.40174 l 0.67869,-0.25803 c 0.38376,-0.14591 3.97981,-0.25804 8.2755,-0.25804 6.4475,0 7.68578,0.0623 8.18486,0.41188 0.58285,0.40825 0.58804,0.47455 0.58804,7.52173 0,6.11072 -0.0584,7.16827 -0.41578,7.52562 -0.35998,0.35998 -1.48726,0.41469 -8.40052,0.40773 -4.92948,-0.005 -8.16191,-0.11124 -8.44777,-0.27774 z m -76.50242,-22.35773 c -0.0883,-0.23018 -0.16059,-3.59965 -0.16059,-7.48771 0,-5.14548 0.0864,-7.15559 0.3175,-7.38669 0.23316,-0.23317 2.477,-0.3175 8.44776,-0.3175 7.03838,0 8.18611,0.0558 8.54604,0.41577 0.35724,0.35724 0.41578,1.41146 0.41578,7.48771 0,5.14762 -0.0864,7.15833 -0.3175,7.38943 -0.23359,0.23359 -2.53371,0.3175 -8.70294,0.3175 -7.40236,0 -8.40427,-0.0491 -8.54605,-0.41851 z m 25.4,0 c -0.0883,-0.23018 -0.1606,-3.59965 -0.1606,-7.48771 0,-5.14548 0.0864,-7.15559 0.3175,-7.38669 0.23317,-0.23317 2.47701,-0.3175 8.44777,-0.3175 7.03838,0 8.18611,0.0558 8.54604,0.41577 0.35724,0.35724 0.41578,1.41146 0.41578,7.48771 0,5.14762 -0.0864,7.15833 -0.3175,7.38943 -0.23359,0.23359 -2.53371,0.3175 -8.70295,0.3175 -7.40235,0 -8.40426,-0.0491 -8.54604,-0.41851 z m 25.5569104,0.10101 c -0.45259,-0.45258 -0.45259,-14.52282 0,-14.97541 0.454,-0.454 16.63808,-0.454 17.0920796,0 0.45259,0.45259 0.45259,14.52283 0,14.97541 -0.4539996,0.45401 -16.6380796,0.45401 -17.0920796,0 z m 25.3999896,0 c -0.45258,-0.45258 -0.45258,-14.52282 0,-14.97541 0.45401,-0.454 16.63809,-0.454 17.09209,0 0.45258,0.45259 0.45258,14.52283 0,14.97541 -0.454,0.45401 -16.63808,0.45401 -17.09209,0 z M -7.0279206,172.80919 c -0.45259,-0.45259 -0.45259,-14.52283 0,-14.97542 0.454,-0.454 16.63808,-0.454 17.0920796,0 0.45259,0.45259 0.45259,14.52283 0,14.97542 -0.4539996,0.454 -16.6380796,0.454 -17.0920796,0 z m 25.3999896,0 c -0.45258,-0.45259 -0.45258,-14.52283 0,-14.97542 0.45401,-0.454 16.63809,-0.454 17.09209,0 0.45258,0.45259 0.45258,14.52283 0,14.97542 -0.454,0.454 -16.63808,0.454 -17.09209,0 z m -64.47895,-40.54101 c -0.14552,-0.0581 -0.58983,-0.17728 -0.98734,-0.26488 -1.01953,-0.22465 -2.58089,-1.67597 -3.14943,-2.92746 -0.44131,-0.97144 -0.48231,-1.99789 -0.48763,-12.20904 l -0.006,-11.14843 0.73669,-1.41019 c 0.59955,-1.14767 1.0059,-1.55191 2.18281,-2.17149 1.33371,-0.70212 1.62225,-0.75323 3.7119,-0.65756 2.55781,0.1171 3.55228,0.54731 4.78172,2.06859 1.20548,1.49162 1.32858,2.92072 1.23729,14.36424 -0.076,9.52876 -0.12276,10.4428 -0.57763,11.2939 -1.1196,2.09485 -2.52311,2.90663 -5.29434,3.06219 -1.03601,0.0582 -2.00271,0.0582 -2.14823,1.3e-4 z m 66.81254,-0.74722 c -0.64086,-0.32742 -1.52929,-1.05285 -1.97429,-1.61206 l -0.80909,-1.01674 v -12.09952 -12.09951 l 0.6376,-0.93052 c 1.19944,-1.75046 2.17855,-2.19456 5.06089,-2.29553 2.78419,-0.0975 3.96659,0.26359 5.20295,1.58904 1.37481,1.47388 1.40212,1.74337 1.39588,13.77197 -0.005,10.31046 -0.0441,11.27008 -0.49427,12.24548 -1.00076,2.16837 -2.66322,3.0427 -5.78536,3.0427 -1.6241,0 -2.3197,-0.12803 -3.23431,-0.59531 z"
       id="path500" /></g></svg>
