<?xml version="1.0" encoding="UTF-8" standalone="no"?>
<!-- Created with Inkscape (http://www.inkscape.org/) -->

<svg
   width="146.76093mm"
   height="211.52577mm"
   viewBox="0 0 146.76093 211.52577"
   version="1.1"
   id="svg5"
   xml:space="preserve"
   inkscape:version="1.2.2 (732a01da63, 2022-12-09)"
   sodipodi:docname="pin.svg"
   xmlns:inkscape="http://www.inkscape.org/namespaces/inkscape"
   xmlns:sodipodi="http://sodipodi.sourceforge.net/DTD/sodipodi-0.dtd"
   xmlns="http://www.w3.org/2000/svg"
   xmlns:svg="http://www.w3.org/2000/svg"><sodipodi:namedview
     id="namedview7"
     pagecolor="#ffffff"
     bordercolor="#666666"
     borderopacity="1.0"
     inkscape:showpageshadow="2"
     inkscape:pageopacity="0.0"
     inkscape:pagecheckerboard="0"
     inkscape:deskcolor="#d1d1d1"
     inkscape:document-units="mm"
     showgrid="false"
     inkscape:zoom="0.46769781"
     inkscape:cx="501.39213"
     inkscape:cy="378.44949"
     inkscape:window-width="1366"
     inkscape:window-height="705"
     inkscape:window-x="-8"
     inkscape:window-y="-8"
     inkscape:window-maximized="1"
     inkscape:current-layer="layer1" /><defs
     id="defs2" /><g
     inkscape:label="Capa 1"
     inkscape:groupmode="layer"
     id="layer1"
     transform="translate(70.596654,-48.739979)"><path
       style="fill:#000000;stroke-width:0.264583"
       d="m 2.0987383,260.10196 c -0.17554,-0.0713 -0.94057,-0.98462 -1.70005005,-2.02963 -0.75948,-1.04502 -1.51441995,-2.0191 -1.67762995,-2.16462 -0.29332,-0.26152 -5.454448,-7.46486 -9.5733713,-13.36146 -1.168974,-1.67349 -4.747246,-6.97177 -7.951718,-11.77396 -23.044765,-34.53463 -39.031908,-63.61253 -46.656393,-84.86008 -5.422519,-15.1112 -6.386182,-25.27648 -3.668504,-38.69746 3.886719,-19.194168 16.03307,-36.66132 32.917676,-47.337509 8.762637,-5.540643 18.323946,-8.976406 29.6333343,-10.648446 3.945236,-0.583286 14.072906,-0.662693 17.8593757,-0.14003 16.70539,2.305918 30.79374,8.998099 42.43105,20.155398 10.49119,10.058451 18.01889,23.68776 20.89716,37.835417 1.86599,9.17196 2.0499,17.16699 0.56396,24.51742 -4.34166,21.47678 -21.52184,55.03478 -50.16374,97.98467 -4.02729,6.03911 -9.14173,13.54005 -11.36541,16.66875 -2.22369,3.1287 -5.1235797,7.22409 -6.4441897,9.10087 -3.39878,4.83015 -3.85638,5.25627 -5.10155,4.75067 z m 7.32936,-112.53705 c 9.3578597,-2.69468 16.3406097,-9.66584 18.8384597,-18.80717 0.52313,-1.9145 0.609,-2.85108 0.6048,-6.59691 -0.004,-3.71871 -0.0951,-4.69888 -0.61395,-6.61458 -2.62308,-9.68566 -10.34327,-17.090274 -20.0186597,-19.200347 -3.33449,-0.727207 -8.54673005,-0.617604 -11.90625,0.25037 -6.257412,1.616678 -11.8158793,5.579947 -15.4539163,11.018867 -3.393913,5.07396 -4.752247,10.3255 -4.253494,16.4447 0.534929,6.56304 3.056734,12.04991 7.64876,16.64194 3.33742,3.33741 7.4929153,5.7343 11.8436803,6.83142 3.01019995,0.75908 3.28500995,0.78437 7.49101,0.68939 2.94433,-0.0665 4.29761,-0.21942 5.81956,-0.65768 z"
       id="path802" /></g></svg>
