<?xml version="1.0" encoding="UTF-8" standalone="no"?>
<svg
   width="187.72496mm"
   height="33.64933mm"
   viewBox="0 0 187.72496 33.649329"
   version="1.1"
   id="svg8"
   inkscape:export-filename="C:\Users\Administrador\Desktop\tayiologo.png"
   inkscape:export-xdpi="203.05307"
   inkscape:export-ydpi="203.05307"
   inkscape:version="1.2.2 (732a01da63, 2022-12-09)"
   sodipodi:docname="taiyo_w.svg"
   xmlns:inkscape="http://www.inkscape.org/namespaces/inkscape"
   xmlns:sodipodi="http://sodipodi.sourceforge.net/DTD/sodipodi-0.dtd"
   xmlns="http://www.w3.org/2000/svg"
   xmlns:svg="http://www.w3.org/2000/svg"
   xmlns:rdf="http://www.w3.org/1999/02/22-rdf-syntax-ns#"
   xmlns:cc="http://creativecommons.org/ns#"
   xmlns:dc="http://purl.org/dc/elements/1.1/">
  <defs
     id="defs2">
    <rect
       x="14.363095"
       y="162.52975"
       width="163.28571"
       height="10.583333"
       id="rect841" />
    <rect
       x="-23.434525"
       y="155.7262"
       width="262.31549"
       height="120.19643"
       id="rect835" />
    <rect
       id="rect835-9"
       height="120.19643"
       width="262.31549"
       y="155.7262"
       x="-23.434525" />
    <rect
       id="rect2215"
       height="120.19643"
       width="262.31549"
       y="155.7262"
       x="-23.434525" />
    <rect
       id="rect835-3"
       height="120.19643"
       width="262.31549"
       y="155.7262"
       x="-23.434525" />
    <rect
       id="rect2248"
       height="120.19643"
       width="262.31549"
       y="155.7262"
       x="-23.434525" />
    <rect
       x="-23.434525"
       y="155.7262"
       width="262.31549"
       height="120.19643"
       id="rect835-3-6" />
    <rect
       x="-23.434525"
       y="155.7262"
       width="262.31549"
       height="120.19643"
       id="rect2277" />
    <rect
       id="rect835-97"
       height="120.19643"
       width="262.31549"
       y="155.7262"
       x="-23.434525" />
    <rect
       id="rect2306"
       height="120.19643"
       width="262.31549"
       y="155.7262"
       x="-23.434525" />
    <rect
       x="-23.434525"
       y="155.7262"
       width="262.31549"
       height="120.19643"
       id="rect835-3-4" />
    <rect
       x="-23.434525"
       y="155.7262"
       width="262.31549"
       height="120.19643"
       id="rect2339" />
    <rect
       id="rect835-3-6-1"
       height="120.19643"
       width="262.31549"
       y="155.7262"
       x="-23.434525" />
    <rect
       id="rect2342"
       height="120.19643"
       width="262.31549"
       y="155.7262"
       x="-23.434525" />
  </defs>
  <sodipodi:namedview
     id="base"
     pagecolor="#ffffff"
     bordercolor="#666666"
     borderopacity="1.0"
     inkscape:pageopacity="0.0"
     inkscape:pageshadow="2"
     inkscape:zoom="0.9399275"
     inkscape:cx="504.29421"
     inkscape:cy="41.492562"
     inkscape:document-units="mm"
     inkscape:current-layer="layer1"
     inkscape:document-rotation="0"
     showgrid="false"
     showguides="false"
     inkscape:guide-bbox="true"
     fit-margin-top="0"
     fit-margin-left="0"
     fit-margin-right="0"
     fit-margin-bottom="0"
     inkscape:window-width="1366"
     inkscape:window-height="705"
     inkscape:window-x="-8"
     inkscape:window-y="-8"
     inkscape:window-maximized="1"
     inkscape:showpageshadow="2"
     inkscape:pagecheckerboard="0"
     inkscape:deskcolor="#d1d1d1">
    <sodipodi:guide
       position="160.74523,6.9943131"
       orientation="1,0"
       id="guide905"
       inkscape:locked="false" />
    <sodipodi:guide
       position="282.81423,-103.7434"
       orientation="0,-1"
       id="guide907"
       inkscape:locked="false" />
  </sodipodi:namedview>
  <metadata
     id="metadata5">
    <rdf:RDF>
      <cc:Work
         rdf:about="">
        <dc:format>image/svg+xml</dc:format>
        <dc:type
           rdf:resource="http://purl.org/dc/dcmitype/StillImage" />
      </cc:Work>
    </rdf:RDF>
  </metadata>
  <g
     inkscape:label="Capa 1"
     inkscape:groupmode="layer"
     id="layer1"
     transform="translate(71.12495,-66.570673)">
    <text
       xml:space="preserve"
       id="text839"
       style="font-size:10.5833px;line-height:1.25;font-family:'A-OTF Shin Go Pr5';-inkscape-font-specification:'A-OTF Shin Go Pr5';white-space:pre;shape-inside:url(#rect841)" />
    <g
       style="font-size:50.8px;line-height:1.25;font-family:'A-OTF Shin Go Pr5';-inkscape-font-specification:'A-OTF Shin Go Pr5';letter-spacing:-4.04231px;white-space:pre;shape-inside:url(#rect835-3-4);fill:#ffffff"
       id="text833-8-3"
       transform="matrix(0.61221423,0,-0.00796931,0.36447535,30.868277,24.705463)"
       aria-label="TAIYO">
      <path
         id="path23155"
         style="font-style:normal;font-variant:normal;font-weight:bold;font-stretch:normal;font-family:'A-OTF Shin Go Pr5';-inkscape-font-specification:'A-OTF Shin Go Pr5 Bold';fill:#ffffff"
         d="m 14.056806,174.37016 v -7.62 h -36.4236 v 7.62 h 14.0208 v 32.4104 h 8.3311999 v -32.4104 z" />
      <path
         id="path23157"
         style="font-style:normal;font-variant:normal;font-weight:bold;font-stretch:normal;font-family:'A-OTF Shin Go Pr5';-inkscape-font-specification:'A-OTF Shin Go Pr5 Bold';fill:#ffffff"
         d="m 44.800589,206.78056 h 9.4996 l -15.5956,-40.0304 h -10.922 l -15.646399,40.0304 h 9.5504 l 3.149599,-8.6868 h 16.8148 z m -11.5824,-32.004 5.7912,16.1036 h -11.5824 z" />
      <path
         id="path23159"
         style="font-style:normal;font-variant:normal;font-weight:bold;font-stretch:normal;font-family:'A-OTF Shin Go Pr5';-inkscape-font-specification:'A-OTF Shin Go Pr5 Bold';fill:#ffffff"
         d="m 54.989425,166.75016 v 40.0304 h 8.432799 v -40.0304 z" />
      <path
         id="path23161"
         style="font-style:normal;font-variant:normal;font-weight:bold;font-stretch:normal;font-family:'A-OTF Shin Go Pr5';-inkscape-font-specification:'A-OTF Shin Go Pr5 Bold';fill:#ffffff"
         d="m 63.924132,166.75016 15.748,24.2824 v 15.748 h 8.382 v -15.748 l 15.697198,-24.2824 h -9.804398 l -10.1092,17.1196 -10.0584,-17.1196 z" />
      <path
         id="path23163"
         style="font-style:normal;font-variant:normal;font-weight:bold;font-stretch:normal;font-family:'A-OTF Shin Go Pr5';-inkscape-font-specification:'A-OTF Shin Go Pr5 Bold';fill:#ffffff"
         d="m 122.59203,166.34376 c -16.5608,0 -19.6088,4.2164 -19.6088,21.1328 0,17.6784 5.5372,19.7104 20.5232,19.7104 16.2052,0 18.6944,-5.334 18.6944,-21.0312 0,-17.0688 -5.0292,-19.812 -19.6088,-19.812 z m 11.2776,20.4724 c 0,10.8712 -0.6604,12.7508 -10.3124,12.7508 -11.2268,0 -12.192,-0.7112 -12.192,-12.7508 0,-10.9728 0.762,-12.8524 10.2616,-12.8524 11.1252,0 12.2428,0.6604 12.2428,12.8524 z" />
    </g>
    <g
       style="font-size:50.8px;line-height:1.25;font-family:'A-OTF Shin Go Pr5';-inkscape-font-specification:'A-OTF Shin Go Pr5';letter-spacing:-4.04231px;white-space:pre;shape-inside:url(#rect835-3-6-1);fill:#ffffff"
       id="text833-8-4-0"
       transform="matrix(0.85705556,0,-0.01115646,0.68787735,-49.202739,-46.001392)"
       aria-label="太陽">
      <path
         id="path23150"
         style="font-style:normal;font-variant:normal;font-weight:bold;font-stretch:normal;font-family:'A-OTF Shin Go Pr5';-inkscape-font-specification:'A-OTF Shin Go Pr5 Bold';fill:#ffffff"
         d="m -18.302794,211.40336 c 3.6576,-1.7272 15.5447999,-7.1628 20.6247999,-21.1836 4.3179999,12.0396 12.6492001,17.8308 19.8120001,21.2344 l 4.724399,-7.3152 c -8.585199,-3.7084 -16.459199,-9.2964 -19.9643992,-22.3012 H 25.740806 v -7.7216 H 5.4716058 v -10.4648 h -7.9755999 v 10.4648 H -22.011194 v 7.7216 h 18.7959999 c -2.1335999,10.5664 -7.6707999,17.526 -19.6087999,22.0472 z m 13.208,-7.874 c 3.0479999,1.6764 7.9247999,7.3152 8.5343998,8.0772 l 6.1976,-5.2324 c -2.1844,-2.3876 -6.4008,-6.1976 -9.6011999,-8.0772 z" />
      <path
         id="path23152"
         style="font-style:normal;font-variant:normal;font-weight:bold;font-stretch:normal;font-family:'A-OTF Shin Go Pr5';-inkscape-font-specification:'A-OTF Shin Go Pr5 Bold';fill:#ffffff"
         d="m 72.701696,189.35616 v -5.6388 h -31.0896 v 5.6388 h 5.1308 c -0.8128,1.1684 -1.778,2.4892 -4.7244,4.318 -0.254,-4.2164 -1.6256,-9.2964 -3.2512,-11.43 1.4224,-3.7084 2.4384,-8.382 2.794,-10.5664 v -6.8072 H 26.067297 v 46.6852 h 6.7564 v -16.7132 l 1.778,7.0612 h 1.320799 c 1.1684,0 4.1656,0 5.6388,-4.1148 l 1.3208,1.6764 c 1.2192,-0.6096 2.1844,-1.0668 4.4196,-2.8956 h 2.1844 c -0.6604,0.8636 -3.9624,4.7244 -9.906,6.4516 l 3.2004,4.572 c 7.0104,-2.6416 11.176,-7.7216 12.954,-11.0236 h 1.8796 c -1.27,2.8448 -4.1656,7.5184 -11.3792,11.1252 l 3.9624,4.4704 c 7.9756,-4.3688 11.8872,-11.684 12.954,-15.5956 h 1.7272 c -0.0508,1.3716 -0.2032,5.6896 -0.6604,7.1628 -0.3556,1.27 -0.762,1.6256 -2.1844,1.6256 h -3.556 l 1.27,6.1976 h 4.826 c 2.3368,0 4.5212,0 5.7912,-4.064 1.1176,-3.556 1.2192,-13.6652 1.27,-16.256 h -19.6596 c 0.508,-0.762 0.6604,-1.0668 1.0668,-1.8796 z m -9.7028,-17.4244 h -12.2936 v -2.2352 h 12.2936 z m 7.1628,10.0076 v -17.0688 h -26.5684 v 17.0688 z m -7.1628,-4.3688 h -12.2936 v -2.3368 h 12.2936 z m -27.178,-5.8928 c -0.812799,5.2832 -2.438399,9.5504 -2.997199,11.1252 v -11.1252 z m 0.3048,19.812 c 0,2.9464 -0.762,3.2512 -2.235199,3.2512 h -1.0668 v -11.5824 c 1.2192,1.524 3.301999,4.064 3.301999,8.3312 z" />
    </g>
    <rect
       y="73.7612"
       x="-29.424843"
       height="5.3244762"
       width="4.5282931"
       id="rect23148"
       style="opacity:0.997;fill:#ffffff;stroke-width:6.80944;paint-order:stroke fill markers;stop-color:#000000" />
  </g>
</svg>
