<?xml version="1.0" encoding="UTF-8" standalone="no"?>
<!-- Created with Inkscape (http://www.inkscape.org/) -->

<svg
   width="185.90074mm"
   height="58.16116mm"
   viewBox="0 0 185.90074 58.16116"
   version="1.1"
   id="svg185"
   xml:space="preserve"
   inkscape:version="1.2.2 (732a01da63, 2022-12-09)"
   sodipodi:docname="clover-logo.svg"
   xmlns:inkscape="http://www.inkscape.org/namespaces/inkscape"
   xmlns:sodipodi="http://sodipodi.sourceforge.net/DTD/sodipodi-0.dtd"
   xmlns="http://www.w3.org/2000/svg"
   xmlns:svg="http://www.w3.org/2000/svg"><sodipodi:namedview
     id="namedview187"
     pagecolor="#ffffff"
     bordercolor="#666666"
     borderopacity="1.0"
     inkscape:showpageshadow="2"
     inkscape:pageopacity="0.0"
     inkscape:pagecheckerboard="0"
     inkscape:deskcolor="#d1d1d1"
     inkscape:document-units="mm"
     showgrid="false"
     inkscape:zoom="0.66142459"
     inkscape:cx="207.88462"
     inkscape:cy="166.3077"
     inkscape:window-width="1366"
     inkscape:window-height="705"
     inkscape:window-x="-8"
     inkscape:window-y="-8"
     inkscape:window-maximized="1"
     inkscape:current-layer="layer1" /><defs
     id="defs182"><rect
       id="rect876"
       height="58.799297"
       width="97.018837"
       y="109.31324"
       x="48.643055" /><rect
       id="rect835"
       height="110.36905"
       width="145.14285"
       y="92.226189"
       x="41.577381" /><rect
       x="153.94725"
       y="95.147949"
       width="168.37981"
       height="66.817383"
       id="rect44977-3-6-3" /><rect
       x="153.94725"
       y="95.147949"
       width="168.37981"
       height="66.817383"
       id="rect1920" /><rect
       id="rect44977-3-6-3-4"
       height="66.817383"
       width="168.37981"
       y="95.147949"
       x="153.94725" /><rect
       id="rect1950"
       height="66.817383"
       width="168.37981"
       y="95.147949"
       x="153.94725" /><rect
       id="rect44977-3-6-3-1"
       height="66.817383"
       width="168.37981"
       y="95.147949"
       x="153.94725" /><rect
       id="rect1995"
       height="66.817383"
       width="168.37981"
       y="95.147949"
       x="153.94725" /><rect
       x="41.577381"
       y="92.226189"
       width="145.14285"
       height="110.36905"
       id="rect835-5" /><rect
       x="41.577381"
       y="92.226189"
       width="145.14285"
       height="110.36905"
       id="rect2028" /><rect
       id="rect835-0-0-2-2-9-9-7"
       height="173.1131"
       width="274.41071"
       y="43.845238"
       x="-3.7797618" /><rect
       id="rect2057"
       height="173.1131"
       width="274.41071"
       y="43.845238"
       x="-3.7797618" /><rect
       x="-3.7797618"
       y="43.845238"
       width="274.41071"
       height="173.1131"
       id="rect835-0-0-2-2-9-9-2-2" /><rect
       x="-3.7797618"
       y="43.845238"
       width="274.41071"
       height="173.1131"
       id="rect2060" /><rect
       id="rect835-0-0-2-2-9-9-2-5-3"
       height="173.1131"
       width="274.41071"
       y="43.845238"
       x="-3.7797618" /><rect
       id="rect2063"
       height="173.1131"
       width="274.41071"
       y="43.845238"
       x="-3.7797618" /><rect
       id="rect44977-3-6-3-7"
       height="66.817383"
       width="168.37981"
       y="95.147949"
       x="153.94725" /><rect
       id="rect2123"
       height="66.817383"
       width="168.37981"
       y="95.147949"
       x="153.94725" /><rect
       x="41.577381"
       y="92.226189"
       width="145.14285"
       height="110.36905"
       id="rect835-3" /><rect
       x="41.577381"
       y="92.226189"
       width="145.14285"
       height="110.36905"
       id="rect2168" /><rect
       id="rect835-5-5"
       height="110.36905"
       width="145.14285"
       y="92.226189"
       x="41.577381" /><rect
       id="rect2171"
       height="110.36905"
       width="145.14285"
       y="92.226189"
       x="41.577381" /><rect
       x="153.94725"
       y="95.147949"
       width="168.37981"
       height="66.817383"
       id="rect44977-3-6-3-7-6" /><rect
       x="153.94725"
       y="95.147949"
       width="168.37981"
       height="66.817383"
       id="rect2238" /><rect
       id="rect835-3-0"
       height="110.36905"
       width="145.14285"
       y="92.226189"
       x="41.577381" /><rect
       id="rect2276"
       height="110.36905"
       width="145.14285"
       y="92.226189"
       x="41.577381" /></defs><g
     inkscape:label="Capa 1"
     inkscape:groupmode="layer"
     id="layer1"
     transform="translate(12.186202,-170.40328)"><g
       aria-label="CLOVER SEASON"
       transform="matrix(0.92555676,0,-0.45466305,0.82393105,88.061968,115.06647)"
       id="text833-9-0"
       style="font-size:10.5833px;line-height:1.15;font-family:'A-OTF Shin Go Pr5';-inkscape-font-specification:'A-OTF Shin Go Pr5';letter-spacing:1.51491px;word-spacing:0px;white-space:pre;shape-inside:url(#rect835-5-5)"><path
         d="m 47.716439,97.052547 h 1.005413 q -0.08467,-0.603248 -0.359832,-1.05833 -0.275166,-0.465665 -0.687914,-0.772581 -0.412749,-0.306916 -0.941914,-0.465665 -0.529165,-0.15875 -1.12183,-0.15875 -0.86783,0 -1.545162,0.317499 -0.666747,0.306916 -1.121829,0.846664 -0.444499,0.539749 -0.677332,1.269996 -0.232832,0.719665 -0.232832,1.545162 0,0.825498 0.211666,1.545158 0.222249,0.71967 0.656164,1.24883 0.433916,0.52917 1.09008,0.83608 0.656165,0.29634 1.534579,0.29634 1.449912,0 2.285992,-0.79375 0.836081,-0.79375 0.984247,-2.222494 h -1.005413 q -0.03175,0.465665 -0.1905,0.867834 -0.158749,0.40216 -0.444498,0.69849 -0.275166,0.28575 -0.666748,0.45509 -0.380999,0.15875 -0.878414,0.15875 -0.677331,0 -1.164163,-0.254 -0.486832,-0.254 -0.804331,-0.67733 -0.306915,-0.43392 -0.455081,-1.005418 -0.148167,-0.582082 -0.148167,-1.227663 0,-0.592665 0.148167,-1.142996 0.148166,-0.550332 0.455081,-0.973664 0.317499,-0.433915 0.793748,-0.687914 0.486832,-0.254 1.164163,-0.254 0.793747,0 1.365246,0.402166 0.582081,0.402165 0.751414,1.206496 z"
         style="font-family:'Helvetica Neue';-inkscape-font-specification:'Helvetica Neue';letter-spacing:0.908943px"
         id="path532" /><path
         d="m 50.953709,94.777138 v 7.556472 h 5.005901 v -0.84666 h -4.000487 v -6.709812 z"
         style="font-family:'Helvetica Neue';-inkscape-font-specification:'Helvetica Neue';letter-spacing:0.908943px"
         id="path534" /><path
         d="m 58.329046,98.555376 q 0,-0.571499 0.148166,-1.12183 0.148166,-0.560915 0.465665,-1.005414 0.317499,-0.444498 0.814914,-0.709081 0.497415,-0.275166 1.18533,-0.275166 0.687914,0 1.185329,0.275166 0.497415,0.264583 0.814914,0.709081 0.317499,0.444499 0.465666,1.005414 0.148166,0.550331 0.148166,1.12183 0,0.571498 -0.148166,1.132413 -0.148167,0.550331 -0.465666,0.994831 -0.317499,0.4445 -0.814914,0.71966 -0.497415,0.26459 -1.185329,0.26459 -0.687915,0 -1.18533,-0.26459 -0.497415,-0.27516 -0.814914,-0.71966 -0.317499,-0.4445 -0.465665,-0.994831 -0.148166,-0.560915 -0.148166,-1.132413 z m -1.005414,0 q 0,0.77258 0.22225,1.492244 0.232832,0.70908 0.687914,1.25941 0.455082,0.55034 1.132413,0.87842 0.677331,0.3175 1.576912,0.3175 0.89958,0 1.576911,-0.3175 0.677332,-0.32808 1.132413,-0.87842 0.455082,-0.55033 0.677332,-1.25941 0.232832,-0.719664 0.232832,-1.492244 0,-0.772581 -0.232832,-1.481662 -0.22225,-0.719665 -0.677332,-1.269996 -0.455081,-0.550332 -1.132413,-0.878414 -0.677331,-0.328083 -1.576911,-0.328083 -0.899581,0 -1.576912,0.328083 -0.677331,0.328082 -1.132413,0.878414 -0.455082,0.550331 -0.687914,1.269996 -0.22225,0.709081 -0.22225,1.481662 z"
         style="font-family:'Helvetica Neue';-inkscape-font-specification:'Helvetica Neue';letter-spacing:0.908943px"
         id="path536" /><path
         d="m 69.673125,102.33361 2.688158,-7.556472 h -1.047747 l -2.18016,6.551062 H 69.11221 L 66.953217,94.777138 H 65.87372 l 2.656408,7.556472 z"
         style="font-family:'Helvetica Neue';-inkscape-font-specification:'Helvetica Neue';letter-spacing:0.908943px"
         id="path538" /><path
         d="m 74.074557,94.777138 v 7.556472 h 5.249317 v -0.84666 h -4.243903 v -2.614075 h 3.926404 v -0.846664 h -3.926404 v -2.402409 h 4.212153 v -0.846664 z"
         style="font-family:'Helvetica Neue';-inkscape-font-specification:'Helvetica Neue';letter-spacing:0.908943px"
         id="path540" /><path
         d="m 81.449898,94.777138 v 7.556472 h 1.005414 v -3.227903 h 2.455325 q 0.370416,0 0.592665,0.116416 0.22225,0.105833 0.359832,0.296333 0.137583,0.179916 0.201083,0.433915 0.0635,0.243419 0.105833,0.518579 0.05292,0.27517 0.0635,0.56092 0.01058,0.28575 0.02117,0.53975 0.01058,0.24341 0.04233,0.44449 0.04233,0.20109 0.148166,0.3175 h 1.12183 q -0.15875,-0.1905 -0.243416,-0.43391 -0.07408,-0.254 -0.116417,-0.52917 -0.04233,-0.27516 -0.05292,-0.56091 -0.01058,-0.28575 -0.03175,-0.56092 -0.03175,-0.275162 -0.09525,-0.529161 -0.05292,-0.254 -0.179916,-0.455082 -0.116416,-0.211666 -0.328082,-0.359833 -0.201083,-0.148166 -0.529165,-0.211666 v -0.02117 q 0.687914,-0.1905 0.99483,-0.709081 0.317499,-0.518582 0.317499,-1.206496 0,-0.920747 -0.613831,-1.449912 -0.603248,-0.529165 -1.682745,-0.529165 z m 3.100907,3.481905 h -2.095493 v -2.635241 h 2.497659 q 0.709081,0 1.02658,0.359832 0.317499,0.359832 0.317499,0.93133 0,0.412749 -0.148166,0.677331 -0.137583,0.253999 -0.380999,0.412749 -0.232833,0.148166 -0.550332,0.201083 -0.317499,0.05292 -0.666748,0.05292 z"
         style="font-family:'Helvetica Neue';-inkscape-font-specification:'Helvetica Neue';letter-spacing:0.908943px"
         id="path542" /><path
         d="m 97.830395,96.989047 h 0.952497 q -0.02117,-0.624414 -0.243416,-1.068913 -0.211666,-0.455082 -0.592665,-0.751414 -0.370415,-0.296333 -0.86783,-0.433916 -0.497415,-0.137583 -1.079497,-0.137583 -0.518581,0 -1.015996,0.137583 -0.486832,0.127 -0.878414,0.402166 -0.380999,0.264582 -0.613832,0.687914 -0.232832,0.412749 -0.232832,0.984247 0,0.518582 0.201082,0.867831 0.211666,0.338665 0.550332,0.560915 0.349249,0.211666 0.783164,0.349248 0.433915,0.127 0.878414,0.232833 0.455082,0.09525 0.888997,0.190499 0.433916,0.09525 0.772581,0.254 0.349249,0.148166 0.550332,0.391582 0.211666,0.243416 0.211666,0.635001 0,0.41275 -0.169333,0.67733 -0.169333,0.26458 -0.444499,0.42333 -0.275166,0.14817 -0.624414,0.21167 -0.338666,0.0635 -0.677332,0.0635 -0.423332,0 -0.825497,-0.10584 -0.402165,-0.10583 -0.709081,-0.32808 -0.296332,-0.22225 -0.486832,-0.56091 -0.179916,-0.34925 -0.179916,-0.825502 h -0.952497 q 0,0.687912 0.243416,1.195912 0.253999,0.49742 0.677331,0.8255 0.433915,0.3175 0.99483,0.47625 0.571499,0.15875 1.206497,0.15875 0.518581,0 1.037163,-0.127 0.529165,-0.11642 0.952497,-0.381 0.423332,-0.27517 0.687914,-0.6985 0.275166,-0.43392 0.275166,-1.03716 0,-0.560918 -0.211666,-0.931334 -0.201083,-0.370415 -0.550331,-0.613831 -0.338666,-0.243416 -0.772581,-0.380999 -0.433916,-0.148166 -0.888997,-0.253999 -0.444499,-0.105833 -0.878414,-0.190499 -0.433916,-0.09525 -0.783165,-0.232833 -0.338665,-0.137583 -0.550331,-0.349249 -0.201083,-0.222249 -0.201083,-0.571498 0,-0.370415 0.137583,-0.613831 0.148166,-0.254 0.380999,-0.402166 0.243416,-0.148166 0.550331,-0.211666 0.306916,-0.0635 0.624415,-0.0635 0.783164,0 1.280579,0.370416 0.507999,0.359832 0.592665,1.174746 z"
         style="font-family:'Helvetica Neue';-inkscape-font-specification:'Helvetica Neue';letter-spacing:0.908943px"
         id="path544" /><path
         d="m 101.22642,94.777138 v 7.556472 h 5.24932 v -0.84666 h -4.2439 v -2.614075 h 3.9264 v -0.846664 h -3.9264 v -2.402409 h 4.21215 v -0.846664 z"
         style="font-family:'Helvetica Neue';-inkscape-font-specification:'Helvetica Neue';letter-spacing:0.908943px"
         id="path546" /><path
         d="m 109.90351,99.21154 1.28058,-3.524239 h 0.0212 l 1.25941,3.524239 z m 0.75142,-4.434402 -2.94216,7.556472 h 1.02658 l 0.84666,-2.27541 h 3.19616 l 0.8255,2.27541 h 1.11124 l -2.95274,-7.556472 z"
         style="font-family:'Helvetica Neue';-inkscape-font-specification:'Helvetica Neue';letter-spacing:0.908943px"
         id="path548" /><path
         d="m 120.7396,96.989047 h 0.95249 q -0.0212,-0.624414 -0.24341,-1.068913 -0.21167,-0.455082 -0.59267,-0.751414 -0.37041,-0.296333 -0.86783,-0.433916 -0.49741,-0.137583 -1.07949,-0.137583 -0.51858,0 -1.016,0.137583 -0.48683,0.127 -0.87841,0.402166 -0.381,0.264582 -0.61384,0.687914 -0.23283,0.412749 -0.23283,0.984247 0,0.518582 0.20109,0.867831 0.21166,0.338665 0.55033,0.560915 0.34925,0.211666 0.78316,0.349248 0.43392,0.127 0.87841,0.232833 0.45509,0.09525 0.889,0.190499 0.43392,0.09525 0.77258,0.254 0.34925,0.148166 0.55033,0.391582 0.21167,0.243416 0.21167,0.635001 0,0.41275 -0.16933,0.67733 -0.16934,0.26458 -0.4445,0.42333 -0.27517,0.14817 -0.62442,0.21167 -0.33866,0.0635 -0.67733,0.0635 -0.42333,0 -0.82549,-0.10584 -0.40217,-0.10583 -0.70909,-0.32808 -0.29633,-0.22225 -0.48683,-0.56091 -0.17991,-0.34925 -0.17991,-0.825502 h -0.9525 q 0,0.687912 0.24342,1.195912 0.25399,0.49742 0.67733,0.8255 0.43391,0.3175 0.99483,0.47625 0.5715,0.15875 1.20649,0.15875 0.51858,0 1.03717,-0.127 0.52916,-0.11642 0.95249,-0.381 0.42334,-0.27517 0.68792,-0.6985 0.27516,-0.43392 0.27516,-1.03716 0,-0.560918 -0.21166,-0.931334 -0.20108,-0.370415 -0.55033,-0.613831 -0.33867,-0.243416 -0.77258,-0.380999 -0.43392,-0.148166 -0.889,-0.253999 -0.4445,-0.105833 -0.87842,-0.190499 -0.43391,-0.09525 -0.78316,-0.232833 -0.33867,-0.137583 -0.55033,-0.349249 -0.20108,-0.222249 -0.20108,-0.571498 0,-0.370415 0.13758,-0.613831 0.14816,-0.254 0.381,-0.402166 0.24341,-0.148166 0.55033,-0.211666 0.30691,-0.0635 0.62441,-0.0635 0.78317,0 1.28058,0.370416 0.508,0.359832 0.59267,1.174746 z"
         style="font-family:'Helvetica Neue';-inkscape-font-specification:'Helvetica Neue';letter-spacing:0.908943px"
         id="path550" /><path
         d="m 124.7177,98.555376 q 0,-0.571499 0.14816,-1.12183 0.14817,-0.560915 0.46567,-1.005414 0.3175,-0.444498 0.81491,-0.709081 0.49742,-0.275166 1.18533,-0.275166 0.68792,0 1.18533,0.275166 0.49742,0.264583 0.81492,0.709081 0.3175,0.444499 0.46566,1.005414 0.14817,0.550331 0.14817,1.12183 0,0.571498 -0.14817,1.132413 -0.14816,0.550331 -0.46566,0.994831 -0.3175,0.4445 -0.81492,0.71966 -0.49741,0.26459 -1.18533,0.26459 -0.68791,0 -1.18533,-0.26459 -0.49741,-0.27516 -0.81491,-0.71966 -0.3175,-0.4445 -0.46567,-0.994831 -0.14816,-0.560915 -0.14816,-1.132413 z m -1.00541,0 q 0,0.77258 0.22224,1.492244 0.23284,0.70908 0.68792,1.25941 0.45508,0.55034 1.13241,0.87842 0.67733,0.3175 1.57691,0.3175 0.89958,0 1.57692,-0.3175 0.67733,-0.32808 1.13241,-0.87842 0.45508,-0.55033 0.67733,-1.25941 0.23283,-0.719664 0.23283,-1.492244 0,-0.772581 -0.23283,-1.481662 -0.22225,-0.719665 -0.67733,-1.269996 -0.45508,-0.550332 -1.13241,-0.878414 -0.67734,-0.328083 -1.57692,-0.328083 -0.89958,0 -1.57691,0.328083 -0.67733,0.328082 -1.13241,0.878414 -0.45508,0.550331 -0.68792,1.269996 -0.22224,0.709081 -0.22224,1.481662 z"
         style="font-family:'Helvetica Neue';-inkscape-font-specification:'Helvetica Neue';letter-spacing:0.908943px"
         id="path552" /><path
         d="m 133.07729,94.777138 v 7.556472 h 0.9525 v -6.064227 h 0.0212 l 3.94757,6.064227 h 1.10067 v -7.556472 h -0.9525 v 6.127732 h -0.0212 l -3.97932,-6.127732 z"
         style="font-family:'Helvetica Neue';-inkscape-font-specification:'Helvetica Neue';letter-spacing:0.908943px"
         id="path554" /></g><g
       aria-label="市場"
       transform="matrix(4.5558038,0,-1.9055314,4.5558038,-514.38971,-263.82197)"
       id="text44975-4-6-1-8-4"
       style="font-size:10.5833px;line-height:1.15;font-family:'A-OTF Shin Go Pr5';-inkscape-font-specification:'A-OTF Shin Go Pr5';letter-spacing:-2.34976px;word-spacing:0px;white-space:pre;shape-inside:url(#rect44977-3-6-3-7-6);stroke-width:0.266632"><path
         d="m 161.05792,102.73369 q -0.96118,0 -1.2609,-0.69247 l 0.0724,-1.41593 q 0.51676,-0.13435 1.07486,-0.14469 l 0.10335,0.062 q 0.12403,0.25838 0.12403,0.77515 0,0.51676 -0.11369,1.41593 z m -3.79304,-4.733549 q 1.37459,-0.02067 2.16007,-0.08268 0.25838,0.113687 0.47542,0.113687 0.31006,0 0.31006,-0.403075 -0.0207,-0.63045 -0.45475,-1.054195 -0.26872,-0.217041 -0.89917,-0.217041 -1.04386,0.09302 -1.04386,0.506428 0,0.175699 0.19637,0.21704 0.33073,0.103353 0.64079,0.237711 -0.59945,0.351398 -1.38493,0.682127 z m -2.60448,0.754473 q -0.24805,0 -0.24805,0.268717 0,0.21704 0.37207,0.537433 0.63045,0.392739 1.03353,0.392739 0.32039,0 0.9405,-0.196369 0.77515,-0.289387 1.73633,-0.578775 -0.031,0.113688 -0.031,0.206706 0,0.134358 0.33073,0.41341 v 0.496095 q -0.57877,0.23771 -1.12654,0.54777 l 0.062,-0.71314 q 0,-0.330725 -0.18604,-0.330725 -0.26871,0 -0.64078,0.981845 -0.45475,1.20923 -0.45475,2.03605 0,0.36173 0.23771,0.85782 0.25838,0.44442 0.59944,0.44442 0.3204,0 0.33073,-0.40307 0,-0.40308 0.0103,-1.31258 0.031,-0.62012 1.15754,-1.36425 -0.0413,2.48046 -0.0413,3.52432 0,1.38492 0.31006,2.10839 0.75447,-0.88883 0.75447,-2.21175 0,-0.39274 -0.0103,-1.50894 0.49609,0.75447 0.95084,1.09553 0.1447,0.33073 0.39274,0.33073 0.40308,0 0.86816,-0.69246 0.28939,-0.48576 0.28939,-1.19889 0,-1.53995 -0.031,-1.82934 -0.031,-0.24805 -0.36173,-0.64079 -0.24805,-0.237706 -0.51676,-0.237706 -0.43408,0 -1.46761,0.206705 0.0413,-0.310057 0.0413,-0.454751 0,-0.227376 -0.66145,-0.527098 1.37459,-0.134358 2.50113,-0.134358 1.16788,0.113688 1.37459,0.113688 0.51676,0 0.51676,-0.537434 0,-0.382404 -0.45475,-0.671791 -0.46509,-0.289387 -0.77515,-0.289387 -0.26871,0 -0.81648,0.41341 -4.20645,0.465086 -6.46987,1.054196 -0.42374,-0.19637 -0.51676,-0.19637 z"
         style="font-family:'EPSON 太行書体Ｂ';-inkscape-font-specification:'EPSON 太行書体Ｂ'"
         id="path557" /><path
         d="m 168.58866,104.69738 q 1.89135,-2.13939 1.89135,-2.53213 0,-0.12403 -0.1757,-0.36174 0.3514,-0.093 0.7028,-0.13435 -0.32039,1.89135 -1.6433,3.19359 -0.34107,-0.0103 -0.77515,-0.16537 z m 0.44442,-2.54247 0.062,-0.12402 0.18603,-0.0413 z m -0.88883,-2.521799 0.0413,-0.671792 h 0.51676 q -0.19637,0.382404 -0.5581,0.671792 z m -0.0517,0.671789 0.0413,-0.27905 q 0.39274,-0.444416 0.81649,-0.847491 l 0.50642,-0.279051 q -0.0723,0.558103 -0.1757,1.02319 z m -0.031,-2.573476 0.11369,-0.09302 q 0.65112,-0.06201 1.32291,-0.186035 l -0.031,0.785479 q -0.1757,-0.04134 -0.31006,-0.04134 -0.14469,0 -0.95084,0.299723 0,-0.516763 -0.1447,-0.764809 z m -0.46508,6.335506 q 0.58911,-0.66145 1.11621,-1.32291 0.35139,-0.32039 0.74413,-0.40307 -0.53743,0.94051 -1.51928,2.03604 -0.21704,-0.16536 -0.34106,-0.31006 z m -4.09276,-0.83715 q -0.23771,-0.18604 -0.41341,-0.18604 -0.16537,0 -0.23771,0.54777 0,0.1447 0.2067,0.48576 0.24805,0.3824 0.43408,0.3824 0.36174,0 1.70532,-1.35391 0.53743,-0.63045 1.13688,-1.53996 0.093,0.12403 0.28938,0.12403 0.19637,0 1.01286,-0.45476 0.84749,-0.41341 1.59163,-0.66145 -1.25057,1.02319 -1.80867,1.35392 -0.24805,0 -0.42375,0.11368 -0.52709,0.51677 -0.52709,0.86817 0,0.26871 0.35139,0.26871 0.0827,0 0.55811,-0.33073 0.54777,-0.35139 0.94051,-0.53743 -0.47543,0.71313 -1.20923,1.12654 -0.16536,0.0207 -0.28939,0.1757 -0.29972,0.43408 -0.29972,0.63045 0,0.31006 0.27905,0.31006 0.15503,0 0.71314,-0.39274 0.0827,0.20671 0.21704,0.43408 -0.46509,0.42375 -1.07487,0.83716 l 0.062,0.10335 q 0.66146,-0.13436 1.36425,-0.41341 0.31006,0.36173 0.71314,0.66146 0.10335,0.43408 0.50642,0.43408 0.28939,0 0.90951,-0.44442 1.15755,-1.0852 1.77766,-3.36929 0.22738,-0.32039 0.22738,-0.5271 0,-0.24805 -0.38241,-0.57877 -0.37207,-0.3204 -0.60978,-0.3204 -0.15503,0 -0.58911,0.1757 -0.87849,0.1447 -1.6433,0.34107 0.7338,-0.71314 1.75699,-1.35392 0.72347,-0.289389 0.72347,-0.537435 0,-0.227376 -0.26872,-0.372069 -0.26872,-0.124023 -0.45475,-0.124023 -0.0724,0 -0.46509,0.392739 0.13436,-0.692462 0.21704,-1.312577 0.22738,-0.434081 0.22738,-0.640786 0,-0.258381 -0.29972,-0.516762 -0.37207,-0.320393 -0.68213,-0.320393 -0.13436,0 -0.42374,0.175699 -0.97152,0.113688 -1.4366,0.58911 -0.16537,-0.217041 -0.38241,-0.217041 -0.21704,0 -0.21704,0.113688 0,0.08268 0.21704,0.39274 0,0.558103 -0.0413,1.033525 -0.0724,0.620115 -0.0724,0.992184 0,0.248051 0.093,0.506431 -0.46509,0.42374 -0.84749,0.42374 l 0.26872,-0.868159 q -0.63045,1.023189 -1.64331,2.046379 0.093,-0.67179 0.1757,-1.33325 0.85783,-0.3514 0.85783,-0.826817 0,-0.21704 -0.68213,-0.847491 0.22737,-0.527098 0.22737,-0.661456 0,-0.227375 -0.41341,-0.527098 -0.51676,-0.372069 -0.79581,-0.372069 -0.2067,0 -0.3824,0.124023 -0.1757,0.155029 -0.1757,0.268717 0,0.124023 0.49609,0.465086 v 1.364254 q -0.42375,0.361733 -1.12654,0.630451 -0.20671,-0.093 -0.28939,-0.093 -0.1757,0.0207 -0.18604,0.1757 0,0.13436 0.28939,0.40308 0.42375,0.33072 0.83716,0.33072 0.12402,0 0.44441,-0.093 0,0.65112 -0.13436,1.4676 -0.26871,0.57878 -0.89916,0.85783 z"
         style="font-family:'EPSON 太行書体Ｂ';-inkscape-font-specification:'EPSON 太行書体Ｂ'"
         id="path559" /></g><path
       d="m 6.696087,209.4021 a 9.1150665,27.8028 71.817669 0 0 -12.62312,6.63896 9.1150665,27.8028 71.817669 0 0 3.07788,12.51904 9.1150665,27.8028 71.817669 0 0 29.03301,-7.12815 9.1150665,27.8028 71.817669 0 1 -24.91445,5.34935 9.1150665,27.8028 71.817669 0 1 -3.07773,-12.51926 9.1150665,27.8028 71.817669 0 1 8.50441,-4.85994 z"
       style="vector-effect:none;fill:#000000;fill-opacity:1;stroke:none;stroke-width:0.22651;stroke-linecap:butt;stroke-linejoin:round;stroke-miterlimit:4;stroke-dasharray:none;stroke-dashoffset:0;stroke-opacity:1;paint-order:stroke fill markers;stop-color:#000000"
       id="path839-3-0-1-38" /><path
       id="path839-3-0-1-3-0"
       style="vector-effect:none;fill:#000000;fill-opacity:1;stroke:none;stroke-width:0.22651;stroke-linecap:butt;stroke-linejoin:round;stroke-miterlimit:4;stroke-dasharray:none;stroke-dashoffset:0;stroke-opacity:1;paint-order:stroke fill markers;stop-color:#000000"
       d="m 80.045628,189.56561 a 9.1150665,27.8028 71.817669 0 0 12.62312,-6.63896 9.1150665,27.8028 71.817669 0 0 -3.07788,-12.51902 9.1150665,27.8028 71.817669 0 0 -29.033011,7.12815 9.1150665,27.8028 71.817669 0 1 24.914451,-5.34936 9.1150665,27.8028 71.817669 0 1 3.07773,12.51926 9.1150665,27.8028 71.817669 0 1 -8.50441,4.85993 z" /><g
       aria-label="O.S.G."
       transform="matrix(0.54883702,0,-0.26960628,0.48857498,150.15001,164.31305)"
       id="text833-5-8"
       style="font-size:10.5833px;line-height:1.15;font-family:'A-OTF Shin Go Pr5';-inkscape-font-specification:'A-OTF Shin Go Pr5';letter-spacing:0px;word-spacing:0px;white-space:pre;shape-inside:url(#rect835-3-0)"><path
         d="m 48.342548,98.535408 q 0,-1.333248 -0.707964,-2.211744 -0.702798,-0.878497 -1.93786,-0.878497 -1.21956,0 -1.932693,0.878497 -0.713132,0.878496 -0.713132,2.211744 0,1.374589 0.723467,2.232412 0.723468,0.85783 1.922358,0.85783 1.173051,0 1.906854,-0.83716 0.73897,-0.837152 0.73897,-2.253082 z m 1.054196,0 q 0,1.700152 -0.981849,2.852532 -0.981849,1.14721 -2.718171,1.14721 -1.746658,0 -2.728507,-1.14721 -0.976682,-1.15238 -0.976682,-2.852532 0,-1.705317 0.976682,-2.85253 0.981849,-1.147213 2.728507,-1.147213 1.787998,0 2.744009,1.167883 0.956011,1.167884 0.956011,2.83186 z"
         style="font-family:'Helvetica World';-inkscape-font-specification:'Helvetica World';letter-spacing:0.841279px"
         id="path562" /><path
         d="M 52.258565,102.33361 H 51.15786 v -1.12137 h 1.100705 z"
         style="font-family:'Helvetica World';-inkscape-font-specification:'Helvetica World';letter-spacing:0.841279px"
         id="path564" /><path
         d="m 59.352673,96.959282 q -0.03101,-0.723468 -0.542601,-1.131711 -0.506427,-0.41341 -1.338415,-0.41341 -0.837156,0 -1.286739,0.346231 -0.449584,0.341064 -0.449584,0.987017 0,0.346231 0.19637,0.594277 0.19637,0.248046 0.702797,0.366902 l 2.170403,0.496092 q 0.878497,0.191202 1.302242,0.728635 0.423746,0.532266 0.423746,1.302245 0,1.12654 -0.826821,1.71565 -0.82682,0.58394 -2.149732,0.58394 -1.007688,0 -1.591629,-0.25838 -0.578775,-0.25838 -1.028358,-0.82165 -0.449584,-0.56327 -0.449584,-1.576129 h 0.961179 q 0,0.847489 0.563271,1.312579 0.563272,0.46508 1.534785,0.46508 0.940508,0 1.462439,-0.33072 0.527098,-0.3359 0.527098,-0.95085 0,-0.558101 -0.315226,-0.831985 -0.310057,-0.279052 -1.219559,-0.490924 l -1.638138,-0.382405 q -0.816485,-0.186034 -1.21956,-0.645953 -0.403075,-0.465087 -0.403075,-1.142046 0,-1.02319 0.687294,-1.684646 0.692462,-0.661456 1.927525,-0.661456 1.395259,0 2.149733,0.583942 0.759641,0.578774 0.816485,1.839675 z"
         style="font-family:'Helvetica World';-inkscape-font-specification:'Helvetica World';letter-spacing:0.841279px"
         id="path566" /><path
         d="m 63.676931,102.33361 h -1.100704 v -1.12137 h 1.100704 z"
         style="font-family:'Helvetica World';-inkscape-font-specification:'Helvetica World';letter-spacing:0.841279px"
         id="path568" /><path
         d="m 69.510139,98.271859 h 3.338287 v 4.061751 h -0.666624 l -0.248046,-0.98185 q -0.485757,0.62012 -1.142045,0.90434 -0.656289,0.27905 -1.364254,0.27905 -1.142045,0 -1.912022,-0.49609 -0.764808,-0.50126 -1.188554,-1.37976 -0.423745,-0.878494 -0.423745,-2.191071 0,-1.638138 0.971514,-2.785351 0.976681,-1.147213 2.625154,-1.147213 1.229895,0 2.149733,0.687294 0.919837,0.687294 1.069698,1.819005 h -0.992184 q -0.180867,-0.749306 -0.764809,-1.173052 -0.583941,-0.423745 -1.514114,-0.423745 -1.121375,0 -1.803502,0.847491 -0.682127,0.842323 -0.682127,2.232415 0,1.617467 0.676959,2.377107 0.676959,0.75447 1.850011,0.75447 0.764808,0 1.291906,-0.29972 0.532266,-0.30489 0.816485,-0.82165 0.28422,-0.52193 0.28422,-1.384925 h -2.371941 z"
         style="font-family:'Helvetica World';-inkscape-font-specification:'Helvetica World';letter-spacing:0.841279px"
         id="path570" /><path
         d="m 76.459553,102.33361 h -1.100705 v -1.12137 h 1.100705 z"
         style="font-family:'Helvetica World';-inkscape-font-specification:'Helvetica World';letter-spacing:0.841279px"
         id="path572" /></g><g
       aria-label="MEETING POINT"
       transform="matrix(1,0,-0.49123195,0.89020047,83.824348,116.82269)"
       id="text833-5"
       style="font-size:10.5833px;line-height:1.15;font-family:'A-OTF Shin Go Pr5';-inkscape-font-specification:'A-OTF Shin Go Pr5';letter-spacing:0px;word-spacing:0px;white-space:pre;shape-inside:url(#rect835-3)"><path
         d="m 42.424789,94.777138 v 7.556472 h 0.952497 v -6.286476 h 0.02117 l 2.360075,6.286476 h 0.857248 l 2.360075,-6.286476 h 0.02117 v 6.286476 h 0.952497 v -7.556472 h -1.375829 l -2.391826,6.349982 -2.381242,-6.349982 z"
         style="font-family:'Helvetica Neue';-inkscape-font-specification:'Helvetica Neue';letter-spacing:0.841279px"
         id="path507" /><path
         d="m 52.462958,94.777138 v 7.556472 h 5.249317 v -0.84666 h -4.243903 v -2.614075 h 3.926404 v -0.846664 h -3.926404 v -2.402409 h 4.212153 v -0.846664 z"
         style="font-family:'Helvetica Neue';-inkscape-font-specification:'Helvetica Neue';letter-spacing:0.841279px"
         id="path509" /><path
         d="m 59.770634,94.777138 v 7.556472 h 5.249317 v -0.84666 h -4.243903 v -2.614075 h 3.926404 v -0.846664 h -3.926404 v -2.402409 h 4.212153 v -0.846664 z"
         style="font-family:'Helvetica Neue';-inkscape-font-specification:'Helvetica Neue';letter-spacing:0.841279px"
         id="path511" /><path
         d="m 68.792803,95.623802 v 6.709808 h 1.005414 v -6.709808 h 2.518825 v -0.846664 h -6.043064 v 0.846664 z"
         style="font-family:'Helvetica Neue';-inkscape-font-specification:'Helvetica Neue';letter-spacing:0.841279px"
         id="path513" /><path
         d="m 74.03673,94.777138 v 7.556472 h 1.005414 v -7.556472 z"
         style="font-family:'Helvetica Neue';-inkscape-font-specification:'Helvetica Neue';letter-spacing:0.841279px"
         id="path515" /><path
         d="m 77.566173,94.777138 v 7.556472 h 0.952497 v -6.064227 h 0.02117 l 3.947571,6.064227 h 1.100663 v -7.556472 h -0.952497 v 6.127732 h -0.02117 l -3.979321,-6.127732 z"
         style="font-family:'Helvetica Neue';-inkscape-font-specification:'Helvetica Neue';letter-spacing:0.841279px"
         id="path517" /><path
         d="m 91.710664,101.3917 0.264582,0.94191 h 0.634998 v -3.979317 h -3.312572 v 0.846664 h 2.412992 q 0.02117,0.518582 -0.137583,0.973663 -0.158749,0.4445 -0.476248,0.78316 -0.306916,0.32809 -0.761998,0.51859 -0.455082,0.1905 -1.047747,0.1905 -0.634998,0 -1.121829,-0.24342 -0.476249,-0.254 -0.804331,-0.66675 -0.328083,-0.42333 -0.497415,-0.963078 -0.169333,-0.550332 -0.169333,-1.142997 0,-0.603248 0.148166,-1.174746 0.148166,-0.582081 0.455082,-1.02658 0.317499,-0.455082 0.804331,-0.730248 0.497415,-0.275166 1.185329,-0.275166 0.423332,0 0.793748,0.105833 0.380999,0.09525 0.677331,0.296333 0.296332,0.201083 0.497415,0.518582 0.201083,0.306915 0.275166,0.740831 h 1.005413 Q 92.430328,96.438716 92.133996,95.97305 91.848247,95.496802 91.414332,95.189886 90.991,94.882971 90.440668,94.745388 q -0.539748,-0.148167 -1.15358,-0.148167 -0.89958,0 -1.576911,0.338666 -0.666748,0.328082 -1.12183,0.888997 -0.444499,0.560915 -0.677331,1.312329 -0.22225,0.740831 -0.22225,1.566329 0,0.740831 0.243416,1.428748 0.243416,0.68791 0.709081,1.21708 0.465666,0.52916 1.132413,0.84666 0.666748,0.30692 1.513412,0.30692 0.666748,0 1.322913,-0.254 0.656164,-0.26459 1.100663,-0.85725 z"
         style="font-family:'Helvetica Neue';-inkscape-font-specification:'Helvetica Neue';letter-spacing:0.841279px"
         id="path519" /><path
         d="m 99.722039,98.396626 v -2.772824 h 1.968491 q 0.85725,0 1.24883,0.359832 0.40217,0.349249 0.40217,1.02658 0,0.677331 -0.40217,1.037163 -0.39158,0.359832 -1.24883,0.349249 z m -1.005413,-3.619488 v 7.556472 h 1.005413 v -3.09032 h 2.307161 q 1.143,0.01058 1.72508,-0.582081 0.59266,-0.592665 0.59266,-1.650995 0,-1.05833 -0.59266,-1.640412 -0.58208,-0.592664 -1.72508,-0.592664 z"
         style="font-family:'Helvetica Neue';-inkscape-font-specification:'Helvetica Neue';letter-spacing:0.841279px"
         id="path521" /><path
         d="m 106.99797,98.555376 q 0,-0.571499 0.14817,-1.12183 0.14816,-0.560915 0.46566,-1.005414 0.3175,-0.444498 0.81492,-0.709081 0.49741,-0.275166 1.18533,-0.275166 0.68791,0 1.18533,0.275166 0.49741,0.264583 0.81491,0.709081 0.3175,0.444499 0.46567,1.005414 0.14816,0.550331 0.14816,1.12183 0,0.571498 -0.14816,1.132413 -0.14817,0.550331 -0.46567,0.994831 -0.3175,0.4445 -0.81491,0.71966 -0.49742,0.26459 -1.18533,0.26459 -0.68792,0 -1.18533,-0.26459 -0.49742,-0.27516 -0.81492,-0.71966 -0.3175,-0.4445 -0.46566,-0.994831 -0.14817,-0.560915 -0.14817,-1.132413 z m -1.00541,0 q 0,0.77258 0.22225,1.492244 0.23283,0.70908 0.68791,1.25941 0.45508,0.55034 1.13242,0.87842 0.67733,0.3175 1.57691,0.3175 0.89958,0 1.57691,-0.3175 0.67733,-0.32808 1.13241,-0.87842 0.45508,-0.55033 0.67733,-1.25941 0.23284,-0.719664 0.23284,-1.492244 0,-0.772581 -0.23284,-1.481662 -0.22225,-0.719665 -0.67733,-1.269996 -0.45508,-0.550332 -1.13241,-0.878414 -0.67733,-0.328083 -1.57691,-0.328083 -0.89958,0 -1.57691,0.328083 -0.67734,0.328082 -1.13242,0.878414 -0.45508,0.550331 -0.68791,1.269996 -0.22225,0.709081 -0.22225,1.481662 z"
         style="font-family:'Helvetica Neue';-inkscape-font-specification:'Helvetica Neue';letter-spacing:0.841279px"
         id="path523" /><path
         d="m 115.34281,94.777138 v 7.556472 h 1.00542 v -7.556472 z"
         style="font-family:'Helvetica Neue';-inkscape-font-specification:'Helvetica Neue';letter-spacing:0.841279px"
         id="path525" /><path
         d="m 118.87226,94.777138 v 7.556472 h 0.9525 v -6.064227 h 0.0212 l 3.94757,6.064227 h 1.10066 v -7.556472 h -0.9525 v 6.127732 h -0.0212 l -3.97932,-6.127732 z"
         style="font-family:'Helvetica Neue';-inkscape-font-specification:'Helvetica Neue';letter-spacing:0.841279px"
         id="path527" /><path
         d="m 129.07976,95.623802 v 6.709808 h 1.00542 v -6.709808 h 2.51882 v -0.846664 h -6.04306 v 0.846664 z"
         style="font-family:'Helvetica Neue';-inkscape-font-specification:'Helvetica Neue';letter-spacing:0.841279px"
         id="path529" /></g></g></svg>
